<svg xmlns="http://www.w3.org/2000/svg" viewBox="0 0 32 32" fill="none">
  <rect width="32" height="32" rx="6" fill="#4F46E5"/>
  <path d="M10 8C10 7.44772 10.4477 7 11 7H14C14.5523 7 15 7.44772 15 8V19C15 21.7614 12.7614 24 10 24V8Z" fill="white"/>
  <path d="M17 8C17 7.44772 17.4477 7 18 7H21C21.5523 7 22 7.44772 22 8V19C22 21.7614 19.7614 24 17 24V8Z" fill="white"/>
  <path d="M10 24C10 22.3431 11.3431 21 13 21H19C20.6569 21 22 22.3431 22 24C22 24.5523 21.5523 25 21 25H11C10.4477 25 10 24.5523 10 24Z" fill="white"/>
</svg>
